<svg xmlns="http://www.w3.org/2000/svg" id="master-artboard" width="48.218" height="47.378" viewBox="0 0 48.218 47.378"><rect id="ee-background" width="48.218" height="47.378" x="0" y="0" style="fill:#fff;fill-opacity:0;pointer-events:none"/><title>social-media-icons-all-updated-tiktok</title><path d="M462.5,649.29A23.8,23.8,0,0,0,455,695.67c1.19.22,1.62-.52,1.62-1.14s0-2.45,0-4.43c-6.62,1.43-8-2.81-8-2.81-1.08-2.75-2.64-3.49-2.64-3.49-2.16-1.47.16-1.44.16-1.44a5,5,0,0,1,3.65,2.45c2.12,3.64,5.57,2.59,6.93,2a5,5,0,0,1,1.51-3.18c-5.29-.6-10.85-2.65-10.85-11.77a9.17,9.17,0,0,1,2.46-6.38,8.5,8.5,0,0,1,.23-6.3s2-.64,6.54,2.44a22.6,22.6,0,0,1,11.92,0c4.55-3.08,6.54-2.44,6.54-2.44a8.5,8.5,0,0,1,.23,6.3,9.16,9.16,0,0,1,2.45,6.38c0,9.15-5.56,11.16-10.86,11.75a5.7,5.7,0,0,1,1.61,4.41c0,3.18,0,5.74,0,6.53,0,.63.43,1.37,1.64,1.14a23.8,23.8,0,0,0-7.54-46.38Z" class="cls-3" transform="matrix(1, 0, 0, 1, -438.69638496637344, -649.0398559570312)" style="fill:#000;fill-rule:evenodd"/></svg>